<?xml version="1.0" encoding="UTF-8"?>
<svg id="Layer_2" data-name="Layer 2" xmlns="http://www.w3.org/2000/svg" xmlns:xlink="http://www.w3.org/1999/xlink" viewBox="0 0 159.43 63.93">
  <defs>
    <style>
      .cls-1 {
        fill: none;
      }

      .cls-2, .cls-3 {
        fill: #232d4b;
      }

      .cls-3, .cls-4 {
        fill-rule: evenodd;
      }

      .cls-5, .cls-4 {
        fill: #e57200;
      }

      .cls-6 {
        clip-path: url(#clippath);
      }
    </style>
    <clipPath id="clippath">
      <rect class="cls-1" width="159.43" height="63.93"/>
    </clipPath>
  </defs>
  <g id="Layer_1-2" data-name="Layer 1">
    <g class="cls-6">
      <g>
        <g>
          <rect class="cls-5" x="29.67" y="32.56" width="2.62" height="12.49"/>
          <rect class="cls-5" x="15.52" y="32.56" width="2.54" height="12.49"/>
          <rect class="cls-5" x="18.93" y="32.56" width="2.71" height="12.49"/>
          <rect class="cls-5" x="22.51" y="32.56" width="2.71" height="12.49"/>
          <rect class="cls-5" x="26.09" y="32.56" width="2.71" height="12.49"/>
          <polygon class="cls-5" points="31.17 31.68 16.58 31.68 24.07 27.08 31.17 31.68"/>
          <polygon class="cls-5" points="14.9 31.68 8.66 31.68 8.66 27.03 22.47 27.03 14.9 31.68"/>
          <polygon class="cls-5" points="25.61 27.03 39.07 27.03 39.07 31.68 32.79 31.68 25.61 27.03"/>
          <path class="cls-5" d="M37.15,26.15H10.58c2.6-4.69,7.57-7.86,13.28-7.86s10.68,3.17,13.28,7.86Z"/>
          <path class="cls-4" d="M10.7,41.49l-.23.7.59-.43.59.43-.23-.7.59-.43h-.74l-.23-.7-.23.7h-.74s.6.43.6.43ZM8.65,37.52l.6.43-.23.7.59-.43.59.43-.23-.7.59-.43h-.74l-.23-.7-.23.7h-.74ZM14.64,45.05h-.8l-.23-.69.59-.43h-.74l-.23-.7-.23.7h-.74l.6.43-.23.69h-3.99v-7.53s0-2.71,0-2.71l.56-.41.59.43-.23-.7.59-.43h-.74l-.23-.7-.1.32-.14.38h-.31v-1.14h5.98v12.49ZM13.83,45.05h-1.18l.59-.43.59.43ZM8.66,34.72v-.73l.18.13-.13.39-.05.21Z"/>
          <rect class="cls-5" x="8.66" y="45.93" width="5.98" height="3.32"/>
          <rect class="cls-5" x="33.17" y="45.93" width="5.9" height="3.32"/>
          <path class="cls-4" d="M27.97,48.28l.6-.43h-.74l-.23-.7-.23.7h-.74l.59.43-.23.7.59-.43.59.43-.23-.7ZM23.52,48.74l-.17.51h-7.84v-3.32h.97l-.17.52h-.74l.6.43-.23.7.59-.43.59.43-.23-.7.59-.43h-.74l-.17-.52h14.57l-.17.52h-.74l.59.43-.23.7.59-.43.59.43-.23-.7.6-.43h-.74l-.17-.52h1.01v3.32h-7.87l-.17-.51.59-.43h-.74l-.23-.7-.23.7h-.74l.6.43ZM19.7,48.28l-.23.7.59-.43.59.43-.23-.7.59-.43h-.74l-.23-.7-.23.7h-.74l.6.43ZM24.23,49.25h-.67l.33-.24.34.24Z"/>
          <path class="cls-4" d="M37.07,41.49l.6-.43h-.74s-.23-.7-.23-.7l-.23.7h-.74l.59.43-.23.7.59-.43.59.43-.23-.7ZM35.12,45.05l-.23-.69.6-.43h-.74l-.23-.7-.23.7h-.74l.59.43-.23.69.59-.43.59.43h0ZM39.07,45.05h-5.9v-12.49h5.9v1.14h-.29l-.23-.7-.23.7h-.74l.59.43-.23.7.59-.43.52.38v2.74h-.69s-.23-.7-.23-.7l-.23.7h-.74l.59.43-.23.7.59-.43.59.43-.23-.7.55-.4v7.5ZM39.07,34.03v.57l-.15-.46.15-.11Z"/>
        </g>
        <path class="cls-3" d="M51.12,35.22c2.14,0,3.64-.57,4.63-1.48,1.38-1.18,1.92-2.73,2.07-4.75.07-.96.12-5.27.12-5.62s0-3.84.05-4.09c.07-.3.15-.99,1.06-.99h1.01c.12,0,.15-.1.15-.25v-.54c0-.07-.02-.17-.25-.17-.22,0-1.01.07-2.71.07s-2.78-.07-3.03-.07c-.15,0-.17.05-.17.17v.59c0,.12.02.2.17.2h1.08c.64,0,1.03.44,1.11,1.08.07.62.12,2.04.12,3.92v5.27c0,1.82-.32,3.3-1.28,4.33-.86.89-2.29,1.35-3.69,1.35s-3-.44-3.92-1.77c-.57-.84-.76-1.99-.79-3.13-.02-.79-.12-3.92-.12-5.22v-1.63c0-1.26.02-2.98.05-3.2.05-.54.47-1.01,1.18-1.01h1.23c.17,0,.2-.05.2-.17v-.64c0-.1-.02-.15-.22-.15-.27,0-1.45.07-3.37.07s-3.13-.07-3.37-.07c-.2,0-.22.05-.22.2v.54c0,.17.02.22.17.22h1.16c.76,0,.94.39.94,1.26v5.86c0,3.23.1,4.88.39,5.98.39,1.55,1.26,2.64,2.93,3.3.81.34,2.04.52,3.32.52Z"/>
        <path class="cls-3" d="M71.34,26.73c0-1.1-.05-2.78.08-4.01.05-.37.19-.56.86-.56h.27c.11,0,.16-.08.16-.19v-.56c0-.16-.05-.21-.19-.21-.19,0-1.12.08-1.69.08-.86,0-2.01-.08-2.19-.08-.13,0-.19.05-.19.13v.64c0,.13.05.19.19.19h.45c.45,0,.86.16.99.48.13.32.21,1.87.21,2.52.05.86.08,1.69.08,3.21v1.77h-.11c-.32-.35-2.81-3.48-3.29-4.04-.56-.67-3.64-4.55-3.72-4.66-.11-.16-.27-.21-.64-.21-.32,0-.88.05-1.31.05-.29,0-.72-.03-1.07-.05-.35,0-.64-.03-.7-.03-.11,0-.16.08-.16.16v.64c0,.11.05.16.16.16h.24c.75,0,1.42.45,1.42,1.42v2.81c0,3.02-.05,4.92-.08,5.24-.08.62-.51.8-.78.8h-.62c-.08,0-.11.03-.11.08v.7c0,.13.03.19.08.19.21,0,1.42-.08,1.79-.08.78,0,1.85.08,2.03.08.13,0,.13-.05.13-.16v-.64c0-.11,0-.16-.13-.16h-.56c-.27,0-.56-.29-.64-.91-.05-.24-.16-2.92-.16-4.52v-3.67h.05c.43.48,2.6,3.37,3.24,4.12.29.35,1.44,1.71,2.68,3.18,1.1,1.31,2.01,2.41,2.19,2.6.11.08.37.27.62.27.32,0,.4-.27.4-.51v-6.26Z"/>
        <path class="cls-3" d="M77.7,26.46c0-.19.03-3.37.03-3.64.03-.56.27-.67.99-.67h.45c.13,0,.16-.08.16-.19v-.64c0-.08-.05-.13-.16-.13-.21,0-1.58.08-2.35.08-1.26.03-2.92-.08-3.08-.08-.11,0-.16.05-.16.16v.62c0,.11.03.19.16.19h.48c1.12,0,1.36.27,1.36.56,0,.37.05,3.05.05,3.48v1.18c0,.91-.03,4.31-.05,4.55-.05.48-.48.51-1.15.51h-.59c-.11,0-.16.08-.16.16v.59c0,.13.05.21.16.21.16,0,1.71-.08,2.62-.08,1.2,0,2.6.08,2.81.08.13,0,.16-.08.16-.19v-.64c0-.08-.03-.13-.16-.13h-.4c-.78,0-1.1-.37-1.15-.99-.03-.4-.03-3.48-.03-3.64v-1.34Z"/>
        <path class="cls-3" d="M104.82,27.21c-.03,1.63,0,3.21-.03,4.52,0,.59-.32.7-.96.7h-.32c-.11,0-.16.05-.16.13v.62c0,.13.05.21.16.21.19,0,1.55-.08,2.22-.08.88,0,2.33.08,2.52.08.16,0,.21-.05.21-.19v-.64c0-.08-.05-.13-.16-.13h-.7c-.54,0-.7-.29-.75-.67v-3.53c.19-.05.43-.05.7-.05,1.12,0,1.53.59,2.49,2.25.24.4,1.42,2.57,1.93,2.94.45-.03,1.1-.05,1.71-.05.27,0,.59.03.83.03.27.03.48.05.54.05.11,0,.16-.08.16-.19v-.54c0-.16-.03-.24-.13-.24-.48,0-.83-.03-1.2-.29-.51-.37-1.12-1.18-1.5-1.71-1.1-1.55-1.63-2.38-2.25-2.52v-.05c2.11-.75,3.16-1.82,3.16-3.67,0-.62-.35-1.39-.94-1.95-.67-.59-1.87-1.04-3.48-1.04-.35,0-2.68.08-3,.08-.48,0-2.14-.08-2.27-.08-.11,0-.16.05-.16.13v.64c0,.11.03.19.11.19h.27c.75,0,.99.29,1.02.83v4.23ZM106.86,22.64c0-.48.4-.59.8-.59,1.07,0,1.82.24,2.54.7.48.32.88,1.04.88,1.85,0,.7-.45,2.78-3.42,2.78-.35,0-.62-.03-.8-.05v-4.68Z"/>
        <path class="cls-3" d="M119.74,33.63c2.43,0,3.72-1.71,3.72-3.72,0-1.34-.32-2.01-.86-2.57-.67-.7-1.66-.99-2.89-1.44-.51-.19-1.47-.59-1.87-1.1-.29-.35-.43-.91-.43-1.31,0-.48.43-1.63,1.9-1.63.78,0,1.36.27,1.77.72.56.64.78,1.58.94,1.9.03.08.08.13.16.11l.48-.11c.08-.03.11-.08.11-.16-.03-.37-.27-2.11-.27-3,0-.13-.03-.24-.24-.24s-.29,0-.35.08l-.11.19c-.05.13-.19.11-.45-.05-.32-.16-.88-.35-1.9-.35-.96,0-1.82.24-2.52.8-.59.51-1.15,1.34-1.15,2.25,0,1.31.32,2.17.94,2.76.8.72,2.09,1.2,2.62,1.39,1.42.54,2.46,1.2,2.46,2.73,0,1.15-1.28,1.82-2.14,1.82-.99,0-1.87-.54-2.27-1.34-.48-.88-.48-1.44-.48-1.82,0-.11-.11-.16-.21-.19l-.48-.05c-.11,0-.16.08-.19.19-.03.43-.21,2.57-.29,3.32-.03.13.05.24.21.29.21.05.35,0,.4-.13l.08-.21c.05-.21.21-.19.4-.05.62.48,1.55.94,2.92.94Z"/>
        <path class="cls-3" d="M127.99,26.46c0-.19.03-3.37.03-3.64.03-.56.27-.67.99-.67h.45c.13,0,.16-.08.16-.19v-.64c0-.08-.05-.13-.16-.13-.21,0-1.58.08-2.35.08-1.26.03-2.92-.08-3.08-.08-.11,0-.16.05-.16.16v.62c0,.11.03.19.16.19h.48c1.12,0,1.36.27,1.36.56,0,.37.05,3.05.05,3.48v1.18c0,.91-.03,4.31-.05,4.55-.05.48-.48.51-1.15.51h-.59c-.11,0-.16.08-.16.16v.59c0,.13.05.21.16.21.16,0,1.71-.08,2.62-.08,1.2,0,2.6.08,2.81.08.13,0,.16-.08.16-.19v-.64c0-.08-.03-.13-.16-.13h-.4c-.78,0-1.1-.37-1.15-.99-.03-.4-.03-3.48-.03-3.64v-1.34Z"/>
        <path class="cls-3" d="M56.25,41.89c2.46,0,3.93-3.37,3.93-5.23,0-1.15-.68-1.98-1.81-1.98-2.25,0-3.86,2.9-3.86,5.03,0,1.29.81,2.18,1.74,2.18ZM55.99,41.08c-.41,0-.78-.32-.78-.86,0-.8.41-1.83.98-2.74.85-1.37,1.74-2.02,2.46-2.02.56,0,.86.42.85.95,0,1.12-1.74,4.67-3.51,4.67Z"/>
        <path class="cls-3" d="M84.14,42.32c0-.19.03-3.37.03-3.64.03-.56.27-.67.99-.67h.45c.13,0,.16-.08.16-.19v-.64c0-.08-.05-.13-.16-.13-.21,0-1.58.08-2.35.08-1.26.03-2.92-.08-3.08-.08-.11,0-.16.05-.16.16v.62c0,.11.03.19.16.19h.48c1.12,0,1.36.27,1.36.56,0,.37.05,3.05.05,3.48v1.18c0,.91-.03,4.31-.05,4.55-.05.48-.48.51-1.15.51h-.59c-.11,0-.16.08-.16.16v.59c0,.13.05.21.16.21.16,0,1.71-.08,2.62-.08,1.2,0,2.6.08,2.81.08.13,0,.16-.08.16-.19v-.64c0-.08-.03-.13-.16-.13h-.4c-.78,0-1.1-.37-1.15-.99-.03-.4-.03-3.48-.03-3.64v-1.34Z"/>
        <path class="cls-3" d="M88.03,43.07c-.03,1.63,0,3.21-.03,4.52,0,.59-.32.7-.96.7h-.32c-.11,0-.16.05-.16.13v.62c0,.13.05.21.16.21.19,0,1.55-.08,2.22-.08.88,0,2.33.08,2.52.08.16,0,.21-.05.21-.19v-.64c0-.08-.05-.13-.16-.13h-.7c-.54,0-.7-.29-.75-.67v-3.53c.19-.05.43-.05.7-.05,1.12,0,1.53.59,2.49,2.25.24.4,1.42,2.57,1.93,2.94.45-.03,1.1-.05,1.71-.05.27,0,.59.03.83.03.27.03.48.05.54.05.11,0,.16-.08.16-.19v-.54c0-.16-.03-.24-.13-.24-.48,0-.83-.03-1.2-.29-.51-.37-1.12-1.18-1.5-1.71-1.1-1.55-1.63-2.38-2.25-2.52v-.05c2.11-.75,3.16-1.82,3.16-3.67,0-.62-.35-1.39-.94-1.95-.67-.59-1.87-1.04-3.48-1.04-.35,0-2.68.08-3,.08-.48,0-2.14-.08-2.27-.08-.11,0-.16.05-.16.13v.64c0,.11.03.19.11.19h.27c.75,0,.99.29,1.02.83v4.23ZM90.22,38.49c0-.48.4-.59.8-.59,1.07,0,1.82.24,2.54.7.48.32.88,1.04.88,1.85,0,.7-.45,2.78-3.42,2.78-.35,0-.62-.03-.8-.05v-4.68Z"/>
        <path class="cls-3" d="M108.44,45.53c0-.45.51-.56.78-.56h.45c.08,0,.13-.08.13-.16v-.64c0-.08-.05-.13-.16-.13s-1.31.05-2.3.05c-1.44,0-2.76-.05-2.92-.05-.11,0-.13.05-.13.13v.64c0,.08.03.13.13.13h.64c.7,0,1.31.19,1.31.8v.99c0,.54-.05.88-.4,1.15-.43.35-1.28.59-2.22.59-.75,0-1.82-.4-2.57-1.2-1.04-1.1-1.63-2.62-1.63-4.68,0-1.2.59-2.62,1.39-3.51.99-1.07,2.03-1.36,2.86-1.36,1.23,0,1.98.54,2.7,1.28.64.64,1.1,1.47,1.28,1.9.08.21.13.24.21.21l.51-.16c.08-.03.11-.08.11-.21-.05-.48-.4-2.97-.4-3.1,0-.19-.05-.29-.29-.29-.21,0-.29.08-.35.19l-.13.24c-.05.08-.16.08-.37-.11-.51-.37-1.77-.86-3.05-.86-1.9,0-3.53.56-4.79,1.63-1.28,1.12-1.98,2.76-1.98,4.39,0,2.09.54,3.53,1.61,4.71,1.26,1.39,3.4,1.95,4.79,1.95,1.71,0,3.16-.37,4.58-1.07.19-.08.29-.16.29-.29s-.08-.29-.08-.54v-2.06Z"/>
        <path class="cls-3" d="M113.34,42.32c0-.19.03-3.37.03-3.64.03-.56.27-.67.99-.67h.45c.13,0,.16-.08.16-.19v-.64c0-.08-.05-.13-.16-.13-.21,0-1.58.08-2.35.08-1.26.03-2.92-.08-3.08-.08-.11,0-.16.05-.16.16v.62c0,.11.03.19.16.19h.48c1.12,0,1.36.27,1.36.56,0,.37.05,3.05.05,3.48v1.18c0,.91-.03,4.31-.05,4.55-.05.48-.48.51-1.15.51h-.59c-.11,0-.16.08-.16.16v.59c0,.13.05.21.16.21.16,0,1.71-.08,2.62-.08,1.2,0,2.6.08,2.81.08.13,0,.16-.08.16-.19v-.64c0-.08-.03-.13-.16-.13h-.4c-.78,0-1.1-.37-1.15-.99-.03-.4-.03-3.48-.03-3.64v-1.34Z"/>
        <path class="cls-3" d="M127.8,42.59c0-1.1-.05-2.78.08-4.01.05-.37.19-.56.86-.56h.27c.11,0,.16-.08.16-.19v-.56c0-.16-.05-.21-.19-.21-.19,0-1.12.08-1.69.08-.86,0-2.01-.08-2.19-.08-.13,0-.19.05-.19.13v.64c0,.13.05.19.19.19h.45c.45,0,.86.16.99.48.13.32.21,1.87.21,2.52.05.86.08,1.69.08,3.21v1.77h-.11c-.32-.35-2.81-3.48-3.29-4.04-.56-.67-3.64-4.55-3.72-4.66-.11-.16-.27-.21-.64-.21-.32,0-.88.05-1.31.05-.29,0-.72-.03-1.07-.05-.35,0-.64-.03-.7-.03-.11,0-.16.08-.16.16v.64c0,.11.05.16.16.16h.24c.75,0,1.42.45,1.42,1.42v2.81c0,3.02-.05,4.92-.08,5.24-.08.62-.51.8-.78.8h-.62c-.08,0-.11.03-.11.08v.7c0,.13.03.19.08.19.21,0,1.42-.08,1.79-.08.78,0,1.85.08,2.03.08.13,0,.13-.05.13-.16v-.64c0-.11,0-.16-.13-.16h-.56c-.27,0-.56-.29-.64-.91-.05-.24-.16-2.92-.16-4.52v-3.67h.05c.43.48,2.6,3.37,3.24,4.12.29.35,1.44,1.71,2.68,3.18,1.1,1.31,2.01,2.41,2.19,2.6.11.08.37.27.62.27.32,0,.4-.27.4-.51v-6.26Z"/>
        <path class="cls-2" d="M62.07,35.59h-1.51c-.08,0-.13-.08-.09-.2l.07-.29c.03-.12.15-.39.29-.39h1.47c.51-1.46,1-2.64,1.9-3.64.47-.54,1.41-1.15,2.51-1.15.98,0,1.52.59,1.52,1,0,.52-.34.78-.68.78-.54,0-.69-.3-.75-.68-.02-.17-.19-.49-.69-.49-1.57,0-1.92,2.24-2.47,4.13,0,0,2.35.06,4.27.06,2.07,0,3.18-.07,3.4-.07.22,0,.25.07.25.17v.57c0,.12-.02.22-.2.22h-1.18c-.69,0-1.03.22-1.03.64,0,.2.02.49.1.84.15.89,1.06,3.82,1.5,5.2.3.94,1.72,5.17,2.29,6.67.57-1.16,2.49-6.23,2.68-6.8.25-.66,1.18-3.5,1.55-4.58.2-.62.34-1.06.34-1.4,0-.3-.17-.57-.79-.57h-.64c-.1,0-.12-.07-.12-.22v-.57c0-.12.02-.17.15-.17.22,0,1.35.07,2.91.07,1.8,0,2.41-.07,2.64-.07.15,0,.17.05.17.17v.62c0,.1-.02.17-.17.17h-.66c-.81,0-1.28.39-1.75.96-.64.79-2.61,5.84-3.03,6.87-.3.81-3.47,8.64-3.6,8.89-.1.2-.22.32-.34.32-.2,0-.3-.25-.42-.57-.79-2.27-2.78-7.88-3.1-8.77l-.25-.84c-.59-1.75-1.75-5.32-2.07-6.06-.25-.57-.49-.81-1.01-.81l-2.29-.02c-.44,1.37-1.22,4.27-2.07,6.44-1.03,2.64-2.24,4.52-4.05,4.52-.68,0-1.22-.46-1.22-1,0-.39.29-.73.73-.73.49,0,.75.47.8.76.03.17.15.29.29.29.81,0,1.73-1.42,2.64-4.56l1.72-5.73Z"/>
        <path class="cls-2" d="M130.94,21.15s.02-.02.1-.01c.42.05,1.94.19,4.87.19h1.07c.87,0,1.82-.04,2.84-.08.51-.01,3.66.02,4.3.02.59,0,2.41-.08,2.6-.08.11,0,.19.05.19.19v.59c0,.11-.03.19-.19.19h-.4c-.48,0-.51.29-.4.45.16.24,2.38,3.8,2.81,4.44.4-.67,2.62-3.91,2.73-4.12.21-.43.24-.78-.35-.78h-.43c-.13,0-.19-.08-.19-.19v-.59c0-.11.05-.19.19-.19.16,0,1.5.08,2.3.08.48,0,1.42-.08,1.58-.08.13,0,.19.05.19.21v.56c0,.13-.05.19-.16.19h-.27c-.43,0-.72.08-.96.21-.4.21-3.51,4.58-4.12,5.51v2.25c.03.67,0,1.39.05,1.71.05.56.48.59.96.59h.35c.13,0,.19.05.19.13v.64c0,.11-.05.19-.21.19s-1.66-.08-2.54-.08c-.59,0-2.14.08-2.3.08-.13,0-.19-.05-.19-.21v-.59c0-.08.05-.16.16-.16h.4c.86,0,1.02-.16,1.04-.54.03-.24.03-1.2.03-2.78v-.96c-.24-.48-3.51-5.27-3.93-5.67-.23-.23-.61-.3-.85-.32.16.73.37,1.68.46,2.14.03.11-.03.16-.13.21l-.45.13c-.16.05-.24.03-.29-.11-.32-.67-.78-1.55-1.34-2.06-.67-.24-2.63-.27-3.11-.27v4.5c0,2.81,0,4.82.03,5.03.05.43.19.7.62.7h1.02c.13,0,.19.08.19.24v.56c0,.08-.05.16-.19.16-.19,0-1.85-.08-2.73-.08-.75,0-2.49.08-2.7.08-.16,0-.21-.08-.21-.24v-.54c0-.13.05-.19.16-.19h1.07c.4,0,.59-.21.62-.43.08-1.02.08-2.43.08-4.04v-5.75c-.51,0-2.01-.03-3,.24-.67.51-1.23,1.36-1.58,2.06-.05.11-.13.19-.24.13l-.48-.19c-.13-.05-.13-.16-.11-.27.15-.49.62-2.14.84-2.95.01-.04.02-.07.05-.09Z"/>
        <path class="cls-2" d="M139.71,43.68h3.64c-.11-.37-1.36-4.39-1.42-4.6-.05-.16-.08-.27-.16-.27s-.13.08-.21.29-1.71,4.31-1.85,4.58ZM134.16,42.32v1.34c0,.16,0,3.24.03,3.64.05.62.37.99,1.15.99h.31c.45,0,.88-.27,1.1-.56.19-.21,1.55-3.42,2.19-4.76.19-.37,1.77-4.01,1.93-4.47.05-.16.21-.45.03-.54-.05-.05-.13-.19-.11-.27-.03-.05.03-.13.27-.19.51-.08,1.26-.56,1.5-.78.05-.11.16-.19.32-.19s.21.11.27.29c.37,1.07,1.74,4.9,2.09,5.97.4,1.34,1.55,4.5,1.74,4.76.35.48.8.72,1.26.72h.51c.11,0,.13.08.13.16v.56c0,.08-.03.24-.19.24-.32,0-1.74-.08-2.35-.08-.51,0-2.09.08-2.43.08-.19,0-.21-.13-.21-.24v-.56c0-.08.03-.16.13-.16h.43c.32,0,.43-.24.43-.45-.11-.54-.83-2.68-1.04-3.29h-4.31c-.11.32-.96,2.54-1.07,2.86-.16.54-.08.88.48.88h.67c.16,0,.19.08.19.19v.59c0,.11-.03.19-.16.19-.21,0-1.63-.08-2.06-.08h-4.43c-.91,0-2.46.08-2.62.08-.11,0-.16-.08-.16-.21v-.59c0-.08.05-.16.16-.16h.59c.67,0,1.1-.03,1.15-.51.03-.24.05-3.64.05-4.55v-1.18c0-.43-.05-3.1-.05-3.48,0-.29-.24-.56-1.36-.56h-.48c-.13,0-.16-.08-.16-.19v-.62c0-.11.05-.16.16-.16.16,0,1.82.11,3.08.08.78,0,2.14-.08,2.35-.08.11,0,.16.05.16.13v.64c0,.11-.03.19-.16.19h-.45c-.72,0-.96.11-.99.67,0,.27-.03,3.45-.03,3.64Z"/>
        <path class="cls-2" d="M85.31,21.38v.62c0,.11-.08.16-.19.16h-.62c-.35,0-.75.05-.75.4,0,.62.45,1.66,1.18,3.91.21.67,1.2,3.77,1.36,4.2h.08c.16-.56,1.47-3.88,1.61-4.28,1.02-2.97,1.36-3.69,1.36-3.96,0-.13-.11-.27-.56-.27h-.29c-.11,0-.16-.05-.16-.19v-.62c0-.08.05-.16.16-.16.16,0,1.55.08,2.17.08h4.09l5.99-.03c.27,0,.62-.05.72-.05.05,0,.11.05.16.37.05.24.8,2.54.86,2.73.03.11.03.16-.03.19l-.43.19c-.05.03-.16.03-.24-.11-.05-.08-1.34-1.58-1.79-2.01-.32-.29-.75-.4-1.02-.4l-2.84-.05v4.55c.16,0,1.74-.08,1.95-.13.7-.19.96-.56.96-1.39,0-.11.03-.13.13-.13l.59.03c.11,0,.19.05.16.16-.05.24-.05,1.66-.05,1.9,0,.59.08,1.42.11,1.77,0,.11-.05.13-.13.13l-.56.05c-.08,0-.13,0-.16-.11-.13-.67-.29-1.1-.99-1.26-.8-.19-1.74-.19-2.01-.19v.91c0,.94.05,2.49.05,2.84,0,1.26.78,1.34,1.93,1.34s1.93-.03,2.84-.75c.21-.16,1.15-1.36,1.42-1.79.13-.19.27-.21.35-.16l.43.24c.05.03.11.11.08.19l-.96,2.84c-.05.13-.19.27-.29.27-.19,0-1.61-.08-7.22-.08-.48,0-1.95.08-2.27.08-.13,0-.16-.08-.16-.19v-.62c0-.11.05-.16.19-.16h.24c1.26,0,1.34-.11,1.34-.48v-5.7c0-1.42-.03-3.16-.05-3.42-.08-.56-.24-.67-1.31-.67h-.64c-.51,0-.88.16-1.12.4-.51.51-1.95,4.01-2.22,4.71-.24.56-2.43,5.81-2.65,6.15-.08.13-.21.21-.43.21s-.35-.19-.43-.4c-.59-1.58-2.01-5.46-2.22-6.05l-.19-.59c-.45-1.23-1.26-3.67-1.44-3.93-.21-.29-.43-.51-.78-.51h-.27c-.11,0-.13-.08-.13-.16v-.67c0-.08.05-.13.16-.13.13,0,1.61.08,2.3.08.64,0,2.27-.08,2.43-.08s.21.05.21.19Z"/>
      </g>
    </g>
  </g>
</svg>